<?xml version="1.0" encoding="UTF-8"?>
<svg width="75px" height="75px" viewBox="0 0 75 75" version="1.1" xmlns="http://www.w3.org/2000/svg" xmlns:xlink="http://www.w3.org/1999/xlink">
    <title>Group 11</title>
    <g id="Page-1" stroke="none" stroke-width="1" fill="none" fill-rule="evenodd">
        <g id="Group-11">
            <circle id="Oval" fill="#4361EE" cx="37.5" cy="37.5" r="37.5"></circle>
            <path d="M74.6710995,12.9451962 L68.2414621,6.34619885 C68.0254884,6.12456104 67.7322079,6 67.4264474,6 C67.1203402,6 66.8270597,6.12456104 66.611086,6.34619885 L39.4566408,34.1562923 C39.2406325,34.3779346 38.947352,34.5024808 38.6414528,34.5024808 C38.3355883,34.5024808 38.0423078,34.3779346 37.8262648,34.1562923 L31.3968701,27.5572846 C31.1808617,27.3356423 30.8875812,27.2110962 30.581682,27.2110962 C30.2758175,27.2110962 29.982537,27.3356423 29.766494,27.5572846 L23.3371132,34.1562923 C22.8876289,34.6164346 22.8876289,35.3623615 23.3371132,35.8225385 L37.8262648,50.6538462 C38.0423078,50.8753846 38.3355883,51 38.6414528,51 C38.947352,51 39.2406325,50.8753846 39.4566408,50.6538462 L74.6710995,14.5949654 C75.1096335,14.1367269 75.1096335,13.4034 74.6710995,12.9451962 Z" id="Path" fill="#33F2A3" fill-rule="nonzero"></path>
        </g>
    </g>
</svg>